<svg width="150" height="64" viewBox="0 0 150 64" fill="none" xmlns="http://www.w3.org/2000/svg">
<path d="M15.872 31.576C16.0427 31.7893 16.128 32.0667 16.128 32.408C16.1707 32.7067 16.128 32.9627 16 33.176C15.7867 33.6453 15.424 33.816 14.912 33.688C14.016 33.4747 13.0773 33.3893 12.096 33.432C11.1147 33.4747 10.1333 33.8587 9.152 34.584C8.17067 35.3093 7.40267 36.376 6.848 37.784C6.29333 39.1493 6.016 40.5787 6.016 42.072C6.016 43.5227 6.35733 44.7813 7.04 45.848C7.76533 46.872 8.68267 47.6187 9.792 48.088C10.4747 48.3867 11.2427 48.5573 12.096 48.6C12.9493 48.6427 13.8027 48.6213 14.656 48.536C15.552 48.408 16.4267 48.2373 17.28 48.024C18.1333 47.768 18.944 47.4907 19.712 47.192C19.968 47.1067 20.2027 47.128 20.416 47.256C20.672 47.384 20.8427 47.5547 20.928 47.768C21.1413 48.3227 21.0347 48.8773 20.608 49.432C20.096 49.9867 19.4133 50.4773 18.56 50.904C17.7067 51.3307 16.768 51.672 15.744 51.928C14.72 52.184 13.6747 52.3333 12.608 52.376C11.5413 52.376 10.5387 52.248 9.6 51.992C8.27733 51.6507 7.14667 51.16 6.208 50.52C5.312 49.8373 4.56533 49.0693 3.968 48.216C3.37067 47.32 2.92267 46.3813 2.624 45.4C2.32533 44.376 2.15467 43.3307 2.112 42.264C2.02667 39.704 2.51733 37.4 3.584 35.352C4.69333 33.304 6.22933 31.7893 8.192 30.808C9.64267 30.0827 11.0933 29.8053 12.544 29.976C14.0373 30.104 15.1467 30.6373 15.872 31.576ZM40.624 32.664C41.904 33.1333 42.9707 33.8373 43.824 34.776C44.72 35.7147 45.4027 36.7813 45.872 37.976C46.3413 39.128 46.5973 40.3227 46.64 41.56C46.7253 42.7973 46.5973 43.9493 46.256 45.016C45.7867 46.2107 45.1893 47.384 44.464 48.536C43.7387 49.688 42.9067 50.712 41.968 51.608C41.0293 52.504 39.9627 53.2293 38.768 53.784C37.5733 54.3387 36.2507 54.616 34.8 54.616C33.0507 54.616 31.5787 54.2107 30.384 53.4C29.1893 52.5893 28.2507 51.544 27.568 50.264C26.8853 48.984 26.4373 47.5333 26.224 45.912C26.0533 44.2907 26.096 42.6693 26.352 41.048C26.5227 39.8533 26.8 38.7013 27.184 37.592C27.6107 36.44 28.144 35.4373 28.784 34.584C29.424 33.688 30.1493 32.9627 30.96 32.408C31.8133 31.8533 32.7733 31.576 33.84 31.576C34.4373 31.576 35.184 31.704 36.08 31.96C36.976 32.1733 37.808 32.4933 38.576 32.92C39.1307 32.408 39.8133 32.3227 40.624 32.664ZM38.192 37.336C37.7227 37.0373 37.168 36.6533 36.528 36.184C35.9307 35.672 35.3973 35.416 34.928 35.416C34.416 35.416 33.904 35.6507 33.392 36.12C32.9227 36.5893 32.496 37.144 32.112 37.784C31.7707 38.3813 31.472 39 31.216 39.64C30.96 40.28 30.7893 40.792 30.704 41.176C30.576 41.816 30.4907 42.584 30.448 43.48C30.4053 44.376 30.4693 45.272 30.64 46.168C30.8107 47.0213 31.1307 47.8107 31.6 48.536C32.112 49.2187 32.8587 49.7093 33.84 50.008C34.4373 50.1787 35.1413 50.1787 35.952 50.008C36.7627 49.7947 37.552 49.432 38.32 48.92C39.1307 48.408 39.8773 47.7253 40.56 46.872C41.2853 46.0187 41.84 45.0373 42.224 43.928C42.6507 42.6907 42.6507 41.4107 42.224 40.088C41.84 38.7227 41.0293 37.7413 39.792 37.144C39.4933 37.3573 39.1947 37.464 38.896 37.464C38.5973 37.464 38.3627 37.4213 38.192 37.336ZM55.299 43.352C54.7017 43.4373 53.9977 43.3733 53.187 43.16C52.419 42.9467 51.8857 42.4133 51.587 41.56C51.459 41.1333 51.4377 40.728 51.523 40.344C51.6083 39.9173 52.0563 39.6187 52.867 39.448C53.635 39.2773 54.4457 39.128 55.299 39C56.195 38.8293 57.091 38.68 57.987 38.552L55.619 31.384C54.8937 28.6533 54.8083 26.3067 55.363 24.344C55.9177 22.3813 57.4963 20.9733 60.099 20.12C61.1657 19.7787 62.211 19.6507 63.235 19.736C64.3017 19.8213 65.3043 20.0987 66.243 20.568C67.1817 21.0373 68.035 21.656 68.803 22.424C69.571 23.192 70.1897 24.088 70.659 25.112C70.8297 25.5813 70.915 26.008 70.915 26.392C70.9577 26.7333 70.8297 27.0533 70.531 27.352C70.1043 27.7787 69.635 27.9707 69.123 27.928C68.611 27.8427 68.2697 27.6933 68.099 27.48C67.715 27.0107 67.2883 26.5413 66.819 26.072C66.3923 25.56 65.923 25.1333 65.411 24.792C64.9417 24.408 64.4297 24.1307 63.875 23.96C63.3203 23.7467 62.723 23.6827 62.083 23.768C61.7843 23.8107 61.4217 23.96 60.995 24.216C60.611 24.472 60.2697 24.8773 59.971 25.432C59.6723 25.944 59.4803 26.6267 59.395 27.48C59.3523 28.3333 59.5017 29.4 59.843 30.68C60.1417 31.7467 60.483 32.8987 60.867 34.136C61.251 35.3733 61.6777 36.6747 62.147 38.04C64.195 37.8267 66.0723 37.7627 67.779 37.848C68.7177 37.9333 69.5923 38.104 70.403 38.36C71.2137 38.616 71.875 39 72.387 39.512C72.515 39.9387 72.4937 40.3013 72.323 40.6C72.1523 40.856 71.8963 41.0907 71.555 41.304C71.2563 41.4747 70.8937 41.6027 70.467 41.688C70.083 41.7733 69.699 41.8373 69.315 41.88C68.4617 41.9653 67.5657 42.072 66.627 42.2C65.6883 42.2853 64.707 42.3707 63.683 42.456C64.3657 44.376 64.9843 46.2107 65.539 47.96C66.1363 49.6667 66.6057 51.096 66.947 52.248C67.1177 52.888 67.139 53.5707 67.011 54.296C66.883 55.0213 66.7123 55.7253 66.499 56.408C66.1577 57.3893 65.731 58.1787 65.219 58.776C64.707 59.3733 64.1523 59.5653 63.555 59.352C63.0857 59.1387 62.787 58.8613 62.659 58.52C62.531 58.1787 62.5097 57.7093 62.595 57.112C62.6803 56.4293 62.723 55.7467 62.723 55.064C62.723 54.3813 62.6803 53.7627 62.595 53.208C62.5523 52.6107 62.467 52.0987 62.339 51.672C62.2537 51.2027 62.1897 50.8827 62.147 50.712L59.459 42.904C58.7763 42.9893 58.0937 43.0747 57.411 43.16C56.7283 43.2027 56.0243 43.2667 55.299 43.352ZM80.329 43.352C79.7317 43.4373 79.0277 43.3733 78.217 43.16C77.449 42.9467 76.9157 42.4133 76.617 41.56C76.489 41.1333 76.4677 40.728 76.553 40.344C76.6383 39.9173 77.0863 39.6187 77.897 39.448C78.665 39.2773 79.4757 39.128 80.329 39C81.225 38.8293 82.121 38.68 83.017 38.552L80.649 31.384C79.9237 28.6533 79.8383 26.3067 80.393 24.344C80.9477 22.3813 82.5263 20.9733 85.129 20.12C86.1957 19.7787 87.241 19.6507 88.265 19.736C89.3317 19.8213 90.3343 20.0987 91.273 20.568C92.2117 21.0373 93.065 21.656 93.833 22.424C94.601 23.192 95.2197 24.088 95.689 25.112C95.8597 25.5813 95.945 26.008 95.945 26.392C95.9877 26.7333 95.8597 27.0533 95.561 27.352C95.1343 27.7787 94.665 27.9707 94.153 27.928C93.641 27.8427 93.2997 27.6933 93.129 27.48C92.745 27.0107 92.3183 26.5413 91.849 26.072C91.4223 25.56 90.953 25.1333 90.441 24.792C89.9717 24.408 89.4597 24.1307 88.905 23.96C88.3503 23.7467 87.753 23.6827 87.113 23.768C86.8143 23.8107 86.4517 23.96 86.025 24.216C85.641 24.472 85.2997 24.8773 85.001 25.432C84.7023 25.944 84.5103 26.6267 84.425 27.48C84.3823 28.3333 84.5317 29.4 84.873 30.68C85.1717 31.7467 85.513 32.8987 85.897 34.136C86.281 35.3733 86.7077 36.6747 87.177 38.04C89.225 37.8267 91.1023 37.7627 92.809 37.848C93.7477 37.9333 94.6223 38.104 95.433 38.36C96.2437 38.616 96.905 39 97.417 39.512C97.545 39.9387 97.5237 40.3013 97.353 40.6C97.1823 40.856 96.9263 41.0907 96.585 41.304C96.2863 41.4747 95.9237 41.6027 95.497 41.688C95.113 41.7733 94.729 41.8373 94.345 41.88C93.4917 41.9653 92.5957 42.072 91.657 42.2C90.7183 42.2853 89.737 42.3707 88.713 42.456C89.3957 44.376 90.0143 46.2107 90.569 47.96C91.1663 49.6667 91.6357 51.096 91.977 52.248C92.1477 52.888 92.169 53.5707 92.041 54.296C91.913 55.0213 91.7423 55.7253 91.529 56.408C91.1877 57.3893 90.761 58.1787 90.249 58.776C89.737 59.3733 89.1823 59.5653 88.585 59.352C88.1157 59.1387 87.817 58.8613 87.689 58.52C87.561 58.1787 87.5397 57.7093 87.625 57.112C87.7103 56.4293 87.753 55.7467 87.753 55.064C87.753 54.3813 87.7103 53.7627 87.625 53.208C87.5823 52.6107 87.497 52.0987 87.369 51.672C87.2837 51.2027 87.2197 50.8827 87.177 50.712L84.489 42.904C83.8063 42.9893 83.1237 43.0747 82.441 43.16C81.7583 43.2027 81.0543 43.2667 80.329 43.352ZM118.607 39.96C116.943 40.9413 115.151 41.7093 113.231 42.264C111.311 42.776 109.242 43.032 107.023 43.032C107.108 44.5253 107.535 45.72 108.303 46.616C109.071 47.4693 110.031 47.9813 111.183 48.152C111.866 48.2373 112.548 48.216 113.231 48.088C113.956 47.96 114.618 47.768 115.215 47.512C115.855 47.2133 116.431 46.8933 116.943 46.552C117.455 46.2107 117.903 45.8693 118.287 45.528C118.671 45.1867 119.076 44.9733 119.503 44.888C119.93 44.76 120.25 44.7387 120.463 44.824C121.06 45.0373 121.274 45.6773 121.103 46.744C120.42 48.1093 119.439 49.2827 118.159 50.264C116.879 51.2027 115.45 51.8 113.871 52.056C112.506 52.312 111.098 52.248 109.647 51.864C108.196 51.48 106.895 50.7333 105.743 49.624C104.762 48.6427 104.015 47.4907 103.503 46.168C102.991 44.8453 102.671 43.48 102.543 42.072C102.415 40.7493 102.522 39.4907 102.863 38.296C103.247 37.1013 103.823 36.056 104.591 35.16C105.359 34.2213 106.319 33.4533 107.471 32.856C108.623 32.2587 109.967 31.9173 111.503 31.832C113.338 31.704 115.002 32.0453 116.495 32.856C117.988 33.6667 119.034 34.7973 119.631 36.248C119.972 37.0587 120.058 37.7627 119.887 38.36C119.759 38.9573 119.332 39.4907 118.607 39.96ZM111.247 35.608C110.82 35.6933 110.351 35.8427 109.839 36.056C109.37 36.2693 108.922 36.5467 108.495 36.888C108.111 37.1867 107.748 37.5493 107.407 37.976C107.108 38.36 106.938 38.808 106.895 39.32C107.62 39.32 108.41 39.256 109.263 39.128C110.159 39 111.012 38.8507 111.823 38.68C112.676 38.4667 113.444 38.232 114.127 37.976C114.852 37.72 115.45 37.4427 115.919 37.144C115.578 36.3333 114.938 35.8427 113.999 35.672C113.103 35.4587 112.186 35.4373 111.247 35.608ZM142.325 39.96C140.661 40.9413 138.869 41.7093 136.949 42.264C135.029 42.776 132.959 43.032 130.741 43.032C130.826 44.5253 131.253 45.72 132.021 46.616C132.789 47.4693 133.749 47.9813 134.901 48.152C135.583 48.2373 136.266 48.216 136.949 48.088C137.674 47.96 138.335 47.768 138.933 47.512C139.573 47.2133 140.149 46.8933 140.661 46.552C141.173 46.2107 141.621 45.8693 142.005 45.528C142.389 45.1867 142.794 44.9733 143.221 44.888C143.647 44.76 143.967 44.7387 144.181 44.824C144.778 45.0373 144.991 45.6773 144.821 46.744C144.138 48.1093 143.157 49.2827 141.877 50.264C140.597 51.2027 139.167 51.8 137.589 52.056C136.223 52.312 134.815 52.248 133.365 51.864C131.914 51.48 130.613 50.7333 129.461 49.624C128.479 48.6427 127.733 47.4907 127.221 46.168C126.709 44.8453 126.389 43.48 126.261 42.072C126.133 40.7493 126.239 39.4907 126.581 38.296C126.965 37.1013 127.541 36.056 128.309 35.16C129.077 34.2213 130.037 33.4533 131.189 32.856C132.341 32.2587 133.685 31.9173 135.221 31.832C137.055 31.704 138.719 32.0453 140.213 32.856C141.706 33.6667 142.751 34.7973 143.349 36.248C143.69 37.0587 143.775 37.7627 143.605 38.36C143.477 38.9573 143.05 39.4907 142.325 39.96ZM134.965 35.608C134.538 35.6933 134.069 35.8427 133.557 36.056C133.087 36.2693 132.639 36.5467 132.213 36.888C131.829 37.1867 131.466 37.5493 131.125 37.976C130.826 38.36 130.655 38.808 130.613 39.32C131.338 39.32 132.127 39.256 132.981 39.128C133.877 39 134.73 38.8507 135.541 38.68C136.394 38.4667 137.162 38.232 137.845 37.976C138.57 37.72 139.167 37.4427 139.637 37.144C139.295 36.3333 138.655 35.8427 137.717 35.672C136.821 35.4587 135.903 35.4373 134.965 35.608Z" fill="#603814"/>
<path d="M18.12 10.28C19.704 10.28 20.944 10.736 21.84 11.648C22.752 12.56 23.208 13.904 23.208 15.68V23H21.504V15.848C21.504 14.536 21.184 13.536 20.544 12.848C19.92 12.16 19.032 11.816 17.88 11.816C16.568 11.816 15.536 12.224 14.784 13.04C14.032 13.84 13.656 14.952 13.656 16.376V23H11.952V15.848C11.952 14.536 11.632 13.536 10.992 12.848C10.368 12.16 9.472 11.816 8.304 11.816C7.008 11.816 5.976 12.224 5.208 13.04C4.456 13.84 4.08 14.952 4.08 16.376V23H2.376V10.376H4.008V12.68C4.456 11.912 5.08 11.32 5.88 10.904C6.68 10.488 7.6 10.28 8.64 10.28C9.696 10.28 10.608 10.504 11.376 10.952C12.16 11.4 12.744 12.064 13.128 12.944C13.592 12.112 14.256 11.464 15.12 11C16 10.52 17 10.28 18.12 10.28ZM38.6827 10.376L32.3708 24.512C31.8587 25.696 31.2667 26.536 30.5947 27.032C29.9227 27.528 29.1147 27.776 28.1707 27.776C27.5627 27.776 26.9947 27.68 26.4667 27.488C25.9387 27.296 25.4827 27.008 25.0987 26.624L25.8907 25.352C26.5307 25.992 27.2987 26.312 28.1947 26.312C28.7707 26.312 29.2587 26.152 29.6587 25.832C30.0747 25.512 30.4587 24.968 30.8107 24.2L31.3627 22.976L25.7227 10.376H27.4987L32.2507 21.104L37.0027 10.376H38.6827Z" fill="#603814"/>
</svg>
