<svg width="130" height="59" viewBox="0 0 130 59" fill="none" xmlns="http://www.w3.org/2000/svg">
<path d="M2.5459 11.8369V21H1.68652V9.37695H2.52441L2.5459 11.8369ZM2.40625 14.2969L1.97656 13.8027C2.03385 13.1868 2.17708 12.5996 2.40625 12.041C2.64258 11.4824 2.9541 10.9883 3.34082 10.5586C3.7347 10.1289 4.19661 9.78874 4.72656 9.53809C5.26367 9.28743 5.86165 9.16211 6.52051 9.16211C7.10059 9.16211 7.61979 9.24089 8.07812 9.39844C8.54362 9.54883 8.9375 9.78874 9.25977 10.1182C9.58203 10.4404 9.8291 10.863 10.001 11.3857C10.1729 11.9085 10.2588 12.5352 10.2588 13.2656V21H9.39941V13.2871C9.39941 12.4134 9.27051 11.7367 9.0127 11.2568C8.75488 10.777 8.39681 10.4404 7.93848 10.2471C7.48014 10.0465 6.95378 9.94629 6.35938 9.94629C5.65755 9.94629 5.05957 10.1003 4.56543 10.4082C4.07129 10.709 3.66667 11.0921 3.35156 11.5576C3.04362 12.016 2.81445 12.4922 2.66406 12.9863C2.51367 13.4805 2.42773 13.9173 2.40625 14.2969ZM10.248 13.3408L9.66797 13.1367C9.72526 12.6139 9.87207 12.1162 10.1084 11.6436C10.3519 11.1637 10.6706 10.7412 11.0645 10.376C11.4583 10.0036 11.9202 9.70996 12.4502 9.49512C12.9873 9.27311 13.5817 9.16211 14.2334 9.16211C14.8278 9.16211 15.3577 9.24447 15.8232 9.40918C16.2959 9.56673 16.6898 9.82096 17.0049 10.1719C17.3271 10.5156 17.5742 10.9596 17.7461 11.5039C17.918 12.041 18.0039 12.6927 18.0039 13.459V21H17.1445V13.4482C17.1445 12.5316 17.0156 11.819 16.7578 11.3105C16.5 10.8021 16.1419 10.4476 15.6836 10.2471C15.2253 10.0394 14.6953 9.93913 14.0938 9.94629C13.4564 9.95345 12.9014 10.0716 12.4287 10.3008C11.9561 10.5299 11.5622 10.82 11.2471 11.1709C10.932 11.5218 10.6921 11.8906 10.5273 12.2773C10.3626 12.6569 10.2695 13.0114 10.248 13.3408ZM24.9756 19.8613L28.8428 9.37695H29.7773L24.707 22.9014C24.6139 23.1592 24.4958 23.4456 24.3525 23.7607C24.2093 24.083 24.0231 24.391 23.7939 24.6846C23.5648 24.9782 23.2676 25.2181 22.9023 25.4043C22.5443 25.5977 22.1003 25.6943 21.5703 25.6943C21.4486 25.6943 21.2874 25.68 21.0869 25.6514C20.8936 25.6299 20.7503 25.6012 20.6572 25.5654L20.6465 24.8135C20.7467 24.835 20.8792 24.8529 21.0439 24.8672C21.2087 24.8887 21.3232 24.8994 21.3877 24.8994C21.8604 24.8994 22.2542 24.8063 22.5693 24.6201C22.8916 24.4411 23.1602 24.1833 23.375 23.8467C23.5898 23.5173 23.7796 23.127 23.9443 22.6758L24.9756 19.8613ZM20.9902 9.37695L25.1152 19.9365L25.3623 20.8174L24.707 21.2256L20.0557 9.37695H20.9902Z" fill="#261103"/>
<path d="M15.704 28.896C17.112 28.896 18.264 29.1093 19.16 29.536C20.0773 29.9413 20.888 30.4213 21.592 30.976C22.0187 31.296 22.3387 31.3387 22.552 31.104C22.7867 30.848 22.9467 30.2613 23.032 29.344H23.768C23.7253 30.176 23.6933 31.1893 23.672 32.384C23.6507 33.5573 23.64 35.1253 23.64 37.088H22.904C22.7973 36.1067 22.6587 35.2747 22.488 34.592C22.3173 33.888 22.0827 33.2693 21.784 32.736C21.4853 32.2027 21.0587 31.7227 20.504 31.296C19.9707 30.7627 19.352 30.368 18.648 30.112C17.944 29.856 17.208 29.728 16.44 29.728C15.288 29.728 14.3067 30.0373 13.496 30.656C12.6853 31.2533 12.024 32.0747 11.512 33.12C11.0213 34.1653 10.6587 35.3493 10.424 36.672C10.1893 37.9733 10.072 39.328 10.072 40.736C10.072 42.1653 10.1893 43.5413 10.424 44.864C10.68 46.1653 11.064 47.328 11.576 48.352C12.1093 49.376 12.792 50.1867 13.624 50.784C14.456 51.3813 15.4373 51.68 16.568 51.68C17.272 51.68 17.976 51.552 18.68 51.296C19.4053 51.0187 20.024 50.624 20.536 50.112C21.368 49.472 21.9333 48.6827 22.232 47.744C22.5307 46.784 22.7547 45.5147 22.904 43.936H23.64C23.64 45.9627 23.6507 47.6053 23.672 48.864C23.6933 50.1013 23.7253 51.1467 23.768 52H23.032C22.9467 51.0827 22.7973 50.5067 22.584 50.272C22.392 50.0373 22.0613 50.0693 21.592 50.368C20.8027 50.9227 19.96 51.4133 19.064 51.84C18.1893 52.2453 17.0587 52.448 15.672 52.448C13.4107 52.448 11.4267 51.9893 9.72 51.072C8.03467 50.1547 6.72267 48.832 5.784 47.104C4.84533 45.376 4.376 43.296 4.376 40.864C4.376 38.4747 4.856 36.384 5.816 34.592C6.79733 32.8 8.13067 31.4027 9.816 30.4C11.5227 29.3973 13.4853 28.896 15.704 28.896ZM38.2665 28.896C40.5278 28.896 42.5012 29.3547 44.1865 30.272C45.8932 31.1893 47.2158 32.512 48.1545 34.24C49.0932 35.9467 49.5625 38.0267 49.5625 40.48C49.5625 42.8693 49.0825 44.96 48.1225 46.752C47.1625 48.544 45.8185 49.9413 44.0905 50.944C42.3838 51.9467 40.4318 52.448 38.2345 52.448C35.9732 52.448 33.9892 51.9893 32.2825 51.072C30.5972 50.1547 29.2852 48.832 28.3465 47.104C27.4078 45.376 26.9385 43.296 26.9385 40.864C26.9385 38.4747 27.4185 36.384 28.3785 34.592C29.3598 32.8 30.6932 31.4027 32.3785 30.4C34.0852 29.3973 36.0478 28.896 38.2665 28.896ZM38.1385 29.472C36.9438 29.472 35.8985 29.952 35.0025 30.912C34.1278 31.872 33.4452 33.1947 32.9545 34.88C32.4852 36.5653 32.2505 38.5173 32.2505 40.736C32.2505 42.9973 32.5172 44.9707 33.0505 46.656C33.6052 48.32 34.3412 49.6107 35.2585 50.528C36.1972 51.424 37.2318 51.872 38.3625 51.872C39.5572 51.872 40.5918 51.392 41.4665 50.432C42.3625 49.472 43.0452 48.1493 43.5145 46.464C44.0052 44.7573 44.2505 42.8053 44.2505 40.608C44.2505 38.3253 43.9732 36.352 43.4185 34.688C42.8852 33.024 42.1492 31.744 41.2105 30.848C40.2932 29.9307 39.2692 29.472 38.1385 29.472ZM68.8955 29.344C68.8102 30.304 68.7462 31.232 68.7035 32.128C68.6822 33.024 68.6715 33.7173 68.6715 34.208C68.6715 34.6773 68.6822 35.1253 68.7035 35.552C68.7248 35.9787 68.7462 36.3413 68.7675 36.64H68.0315C67.7542 34.976 67.3702 33.6747 66.8795 32.736C66.3888 31.776 65.7808 31.0933 65.0555 30.688C64.3515 30.2827 63.5088 30.08 62.5275 30.08H61.4715C60.8528 30.08 60.3835 30.1333 60.0635 30.24C59.7435 30.3467 59.5302 30.56 59.4235 30.88C59.3168 31.2 59.2635 31.6907 59.2635 32.352V48.416C59.2635 49.248 59.3488 49.8667 59.5195 50.272C59.6902 50.6773 60.0208 50.944 60.5115 51.072C61.0022 51.2 61.7275 51.2747 62.6875 51.296V52C62.0262 51.9787 61.1728 51.9573 60.1275 51.936C59.0822 51.9147 57.9835 51.904 56.8315 51.904C55.9142 51.904 55.0182 51.9147 54.1435 51.936C53.2688 51.9573 52.4795 51.9787 51.7755 52V51.36C52.4582 51.3173 52.9702 51.232 53.3115 51.104C53.6528 50.976 53.8768 50.72 53.9835 50.336C54.1115 49.952 54.1755 49.376 54.1755 48.608V32.736C54.1755 31.9467 54.1115 31.3707 53.9835 31.008C53.8768 30.624 53.6422 30.368 53.2795 30.24C52.9382 30.0907 52.4368 30.0053 51.7755 29.984V29.344C52.6502 29.3653 53.5782 29.3867 54.5595 29.408C55.5408 29.408 56.5115 29.4187 57.4715 29.44C58.4315 29.44 59.3275 29.44 60.1595 29.44C60.9915 29.44 61.6742 29.44 62.2075 29.44C63.1888 29.44 64.2982 29.44 65.5355 29.44C66.7942 29.4187 67.9142 29.3867 68.8955 29.344ZM64.1275 40.416C64.1275 40.416 64.1275 40.5227 64.1275 40.736C64.1275 40.9493 64.1275 41.056 64.1275 41.056H58.3035C58.3035 41.056 58.3035 40.9493 58.3035 40.736C58.3035 40.5227 58.3035 40.416 58.3035 40.416H64.1275ZM64.9275 36.192C64.8422 37.408 64.7995 38.336 64.7995 38.976C64.8208 39.616 64.8315 40.2027 64.8315 40.736C64.8315 41.2693 64.8422 41.856 64.8635 42.496C64.8848 43.136 64.9382 44.064 65.0235 45.28H64.2875C64.1595 44.5333 63.9568 43.84 63.6795 43.2C63.4022 42.56 62.9968 42.048 62.4635 41.664C61.9302 41.2587 61.2368 41.056 60.3835 41.056V40.416C61.0235 40.416 61.5568 40.288 61.9835 40.032C62.4315 39.7547 62.8048 39.4027 63.1035 38.976C63.4022 38.528 63.6368 38.0587 63.8075 37.568C63.9782 37.0773 64.1062 36.6187 64.1915 36.192H64.9275ZM87.833 29.344C87.7477 30.304 87.6837 31.232 87.641 32.128C87.6197 33.024 87.609 33.7173 87.609 34.208C87.609 34.6773 87.6197 35.1253 87.641 35.552C87.6623 35.9787 87.6837 36.3413 87.705 36.64H86.969C86.6917 34.976 86.3077 33.6747 85.817 32.736C85.3263 31.776 84.7183 31.0933 83.993 30.688C83.289 30.2827 82.4463 30.08 81.465 30.08H80.409C79.7903 30.08 79.321 30.1333 79.001 30.24C78.681 30.3467 78.4677 30.56 78.361 30.88C78.2543 31.2 78.201 31.6907 78.201 32.352V48.416C78.201 49.248 78.2863 49.8667 78.457 50.272C78.6277 50.6773 78.9583 50.944 79.449 51.072C79.9397 51.2 80.665 51.2747 81.625 51.296V52C80.9637 51.9787 80.1103 51.9573 79.065 51.936C78.0197 51.9147 76.921 51.904 75.769 51.904C74.8517 51.904 73.9557 51.9147 73.081 51.936C72.2063 51.9573 71.417 51.9787 70.713 52V51.36C71.3957 51.3173 71.9077 51.232 72.249 51.104C72.5903 50.976 72.8143 50.72 72.921 50.336C73.049 49.952 73.113 49.376 73.113 48.608V32.736C73.113 31.9467 73.049 31.3707 72.921 31.008C72.8143 30.624 72.5797 30.368 72.217 30.24C71.8757 30.0907 71.3743 30.0053 70.713 29.984V29.344C71.5877 29.3653 72.5157 29.3867 73.497 29.408C74.4783 29.408 75.449 29.4187 76.409 29.44C77.369 29.44 78.265 29.44 79.097 29.44C79.929 29.44 80.6117 29.44 81.145 29.44C82.1263 29.44 83.2357 29.44 84.473 29.44C85.7317 29.4187 86.8517 29.3867 87.833 29.344ZM83.065 40.416C83.065 40.416 83.065 40.5227 83.065 40.736C83.065 40.9493 83.065 41.056 83.065 41.056H77.241C77.241 41.056 77.241 40.9493 77.241 40.736C77.241 40.5227 77.241 40.416 77.241 40.416H83.065ZM83.865 36.192C83.7797 37.408 83.737 38.336 83.737 38.976C83.7583 39.616 83.769 40.2027 83.769 40.736C83.769 41.2693 83.7797 41.856 83.801 42.496C83.8223 43.136 83.8757 44.064 83.961 45.28H83.225C83.097 44.5333 82.8943 43.84 82.617 43.2C82.3397 42.56 81.9343 42.048 81.401 41.664C80.8677 41.2587 80.1743 41.056 79.321 41.056V40.416C79.961 40.416 80.4943 40.288 80.921 40.032C81.369 39.7547 81.7423 39.4027 82.041 38.976C82.3397 38.528 82.5743 38.0587 82.745 37.568C82.9157 37.0773 83.0437 36.6187 83.129 36.192H83.865ZM106.771 29.344C106.685 30.2827 106.621 31.1893 106.579 32.064C106.557 32.9387 106.547 33.6107 106.547 34.08C106.547 34.5067 106.557 34.912 106.579 35.296C106.6 35.68 106.621 36 106.642 36.256H105.907C105.693 34.6987 105.363 33.472 104.915 32.576C104.467 31.6587 103.88 31.0187 103.155 30.656C102.451 30.272 101.619 30.08 100.659 30.08H99.3465C98.7278 30.08 98.2585 30.1333 97.9385 30.24C97.6185 30.3467 97.4052 30.56 97.2985 30.88C97.1918 31.2 97.1385 31.6907 97.1385 32.352V48.992C97.1385 49.6533 97.1918 50.144 97.2985 50.464C97.4052 50.784 97.6185 50.9973 97.9385 51.104C98.2585 51.2107 98.7278 51.264 99.3465 51.264H100.915C101.875 51.264 102.717 51.0613 103.443 50.656C104.189 50.2293 104.819 49.5147 105.331 48.512C105.864 47.5093 106.269 46.1547 106.547 44.448H107.283C107.219 45.1307 107.187 46.0267 107.187 47.136C107.187 47.6267 107.197 48.32 107.219 49.216C107.24 50.112 107.304 51.04 107.411 52C106.323 51.9573 105.096 51.936 103.731 51.936C102.365 51.9147 101.149 51.904 100.083 51.904C99.5492 51.904 98.8665 51.904 98.0345 51.904C97.2025 51.904 96.3065 51.9147 95.3465 51.936C94.3865 51.936 93.4158 51.9467 92.4345 51.968C91.4532 51.968 90.5252 51.9787 89.6505 52V51.36C90.3332 51.3173 90.8452 51.232 91.1865 51.104C91.5278 50.976 91.7518 50.72 91.8585 50.336C91.9865 49.952 92.0505 49.376 92.0505 48.608V32.736C92.0505 31.9467 91.9865 31.3707 91.8585 31.008C91.7518 30.624 91.5172 30.368 91.1545 30.24C90.8132 30.0907 90.3118 30.0053 89.6505 29.984V29.344C90.5252 29.3653 91.4532 29.3867 92.4345 29.408C93.4158 29.408 94.3865 29.4187 95.3465 29.44C96.3065 29.44 97.2025 29.44 98.0345 29.44C98.8665 29.44 99.5492 29.44 100.083 29.44C101.064 29.44 102.173 29.44 103.411 29.44C104.669 29.4187 105.789 29.3867 106.771 29.344ZM101.779 40.288C101.779 40.288 101.779 40.3947 101.779 40.608C101.779 40.8213 101.779 40.928 101.779 40.928H96.1785C96.1785 40.928 96.1785 40.8213 96.1785 40.608C96.1785 40.3947 96.1785 40.288 96.1785 40.288H101.779ZM102.707 36.064C102.621 37.28 102.579 38.208 102.579 38.848C102.6 39.488 102.611 40.0747 102.611 40.608C102.611 41.1413 102.621 41.728 102.643 42.368C102.664 43.008 102.717 43.936 102.803 45.152H102.067C101.96 44.4053 101.757 43.712 101.459 43.072C101.181 42.432 100.776 41.92 100.243 41.536C99.7092 41.1307 99.0158 40.928 98.1625 40.928V40.288C98.8025 40.288 99.3465 40.16 99.7945 39.904C100.243 39.6267 100.605 39.2747 100.883 38.848C101.181 38.4 101.416 37.9307 101.587 37.44C101.757 36.9493 101.885 36.4907 101.971 36.064H102.707ZM127.052 29.344C126.966 30.2827 126.902 31.1893 126.86 32.064C126.838 32.9387 126.828 33.6107 126.828 34.08C126.828 34.5067 126.838 34.912 126.86 35.296C126.881 35.68 126.902 36 126.924 36.256H126.188C125.974 34.6987 125.644 33.472 125.196 32.576C124.748 31.6587 124.161 31.0187 123.436 30.656C122.732 30.272 121.9 30.08 120.94 30.08H119.628C119.009 30.08 118.54 30.1333 118.22 30.24C117.9 30.3467 117.686 30.56 117.58 30.88C117.473 31.2 117.42 31.6907 117.42 32.352V48.992C117.42 49.6533 117.473 50.144 117.58 50.464C117.686 50.784 117.9 50.9973 118.22 51.104C118.54 51.2107 119.009 51.264 119.628 51.264H121.196C122.156 51.264 122.998 51.0613 123.724 50.656C124.47 50.2293 125.1 49.5147 125.612 48.512C126.145 47.5093 126.55 46.1547 126.828 44.448H127.564C127.5 45.1307 127.468 46.0267 127.468 47.136C127.468 47.6267 127.478 48.32 127.5 49.216C127.521 50.112 127.585 51.04 127.692 52C126.604 51.9573 125.377 51.936 124.012 51.936C122.646 51.9147 121.43 51.904 120.364 51.904C119.83 51.904 119.148 51.904 118.316 51.904C117.484 51.904 116.588 51.9147 115.628 51.936C114.668 51.936 113.697 51.9467 112.716 51.968C111.734 51.968 110.806 51.9787 109.932 52V51.36C110.614 51.3173 111.126 51.232 111.468 51.104C111.809 50.976 112.033 50.72 112.14 50.336C112.268 49.952 112.332 49.376 112.332 48.608V32.736C112.332 31.9467 112.268 31.3707 112.14 31.008C112.033 30.624 111.798 30.368 111.436 30.24C111.094 30.0907 110.593 30.0053 109.932 29.984V29.344C110.806 29.3653 111.734 29.3867 112.716 29.408C113.697 29.408 114.668 29.4187 115.628 29.44C116.588 29.44 117.484 29.44 118.316 29.44C119.148 29.44 119.83 29.44 120.364 29.44C121.345 29.44 122.454 29.44 123.692 29.44C124.95 29.4187 126.07 29.3867 127.052 29.344ZM122.06 40.288C122.06 40.288 122.06 40.3947 122.06 40.608C122.06 40.8213 122.06 40.928 122.06 40.928H116.46C116.46 40.928 116.46 40.8213 116.46 40.608C116.46 40.3947 116.46 40.288 116.46 40.288H122.06ZM122.988 36.064C122.902 37.28 122.86 38.208 122.86 38.848C122.881 39.488 122.892 40.0747 122.892 40.608C122.892 41.1413 122.902 41.728 122.924 42.368C122.945 43.008 122.998 43.936 123.084 45.152H122.348C122.241 44.4053 122.038 43.712 121.74 43.072C121.462 42.432 121.057 41.92 120.524 41.536C119.99 41.1307 119.297 40.928 118.444 40.928V40.288C119.084 40.288 119.628 40.16 120.076 39.904C120.524 39.6267 120.886 39.2747 121.164 38.848C121.462 38.4 121.697 37.9307 121.868 37.44C122.038 36.9493 122.166 36.4907 122.252 36.064H122.988Z" fill="#261103"/>
</svg>
